<?xml version="1.0" encoding="UTF-8" standalone="no"?>

<svg
   width="82.701019mm"
   height="80.17144mm"
   viewBox="0 0 82.701019 80.17144"
   version="1.1"
   id="svg5"
   xmlns="http://www.w3.org/2000/svg">
  <defs
     id="defs2">
    <rect
       x="124.683"
       y="225.03761"
       width="445.51364"
       height="261.53018"
       id="rect113" />
  </defs>
  <g
     id="layer1"
     transform="translate(-73.673802,-63.051968)">
    <g
       id="g761"
       class="UnoptimicedTransforms"
       transform="translate(39.532685,24.548522)">
      <g
         aria-label="DIGITAL HUMANIST &amp;DEVELOPER/DESIGNER"
         transform="matrix(0.26458333,0,2.4463948e-4,0.26458333,-0.0835207,0)"
         id="text111"
         style="white-space:pre;shape-inside:url(#rect113);fill:#4d4d4d">
        <path
           d="m 158.37979,176.07034 c -0.005,4.39703 -0.66569,8.23824 -1.98207,11.53263 -1.31609,3.28515 -2.97647,5.7251 -4.98117,7.31824 -1.50683,1.20078 -3.15822,1.959 -4.9542,2.27248 -1.79593,0.31604 -3.92309,0.30971 -6.38152,-0.0209 l -10.8765,-1.46288 0.0131,-49.01778 11.20258,2.1965 c 2.51712,0.49353 4.68824,1.25264 6.51331,2.27496 1.82502,0.99778 3.35931,2.21418 4.60286,3.64857 2.12769,2.40671 3.79811,5.41784 5.01127,9.03363 1.22677,3.58629 1.8375,7.65846 1.83238,12.2246 z m -8.23025,-1.45615 c 0.003,-3.14099 -0.36813,-5.8871 -1.11271,-8.24157 -0.73084,-2.37771 -1.89767,-4.34536 -3.50052,-5.9037 -0.81529,-0.7729 -1.6515,-1.3463 -2.50861,-1.71957 -0.84327,-0.39276 -2.12218,-0.74758 -3.8367,-1.06406 l -2.01181,-0.37135 -0.015,30.37345 2.01008,0.29357 c 1.89265,0.27642 3.28114,0.34971 4.16547,0.22032 0.88437,-0.15033 1.74818,-0.51815 2.59145,-1.10276 1.45167,-1.07127 2.51693,-2.62471 3.19577,-4.66113 0.67893,-2.05405 1.01981,-4.66084 1.02257,-7.8232 z"
           style="font-weight:bold;font-size:48px;-inkscape-font-specification:'sans-serif, Bold'"
           id="path424" />
        <path
           d="m 181.10078,202.68988 -18.06535,-2.42977 0.0105,-8.31993 5.05621,0.73531 0.0428,-30.08404 -5.06068,-0.93706 0.0105,-8.31993 18.09009,3.54693 -0.0149,8.12186 -5.06068,-0.93707 -0.0498,29.76653 5.05622,0.73532 z"
           style="font-weight:bold;font-size:48px;-inkscape-font-specification:'sans-serif, Bold'"
           id="path426" />
        <path
           d="m 214.87716,204.736 c -1.3835,0.57426 -3.21581,1.09053 -5.49691,1.55024 -2.28094,0.44485 -4.55387,0.5182 -6.81888,0.21647 -5.24819,-0.69914 -9.35233,-3.32448 -12.31298,-7.90141 -2.96135,-4.63114 -4.43493,-10.66866 -4.42017,-18.08701 0.0141,-7.0719 1.52555,-12.49416 4.53502,-16.2404 3.01029,-3.73123 7.19889,-5.05429 12.56521,-3.99569 2.03311,0.40107 3.96869,1.05032 5.80669,1.9457 1.83799,0.87294 3.88186,2.30411 6.1315,4.28809 l -0.0305,10.24919 -0.89169,-0.15819 c -0.38589,-0.48055 -0.95101,-1.1605 -1.69541,-2.04067 -0.74437,-0.90141 -1.46147,-1.68126 -2.15127,-2.33911 -0.80016,-0.77781 -1.73887,-1.49363 -2.81611,-2.1474 -1.06346,-0.65258 -2.19668,-1.09113 -3.39964,-1.31462 -1.41037,-0.26203 -2.69014,-0.20031 -3.83926,0.18658 -1.14908,0.38879 -2.18136,1.12175 -3.09683,2.1998 -0.87382,1.04841 -1.56862,2.46352 -2.08442,4.24514 -0.50186,1.76647 -0.75553,3.86981 -0.76105,6.3081 -0.0113,4.97736 0.88515,8.92496 2.68902,11.83294 1.80358,2.89485 4.47352,4.59297 8.01003,5.10421 0.30392,0.0439 0.6355,0.082 0.99473,0.11409 0.37304,0.0342 0.71158,0.0534 1.01561,0.0577 l 0.0234,-8.67173 -6.15604,-0.96531 0.0209,-8.41686 14.24341,2.39898 z"
           style="font-weight:bold;font-size:48px;-inkscape-font-specification:'sans-serif, Bold'"
           id="path428" />
        <path
           d="m 238.67371,210.43338 -18.06534,-2.42977 0.0245,-7.68868 5.05621,0.73531 0.0937,-27.7862 -5.06068,-0.93707 0.0245,-7.68868 18.0901,3.54693 -0.0289,7.49061 -5.06068,-0.93706 -0.10074,27.46869 5.05621,0.73531 z"
           style="font-weight:bold;font-size:48px;-inkscape-font-specification:'sans-serif, Bold'"
           id="path430" />
        <path
           d="m 269.45897,182.00245 -9.64411,-1.7762 -0.15468,33.02979 -7.95538,-1.06999 0.14588,-33.4266 -9.64411,-1.77621 0.0324,-8.13093 27.25961,5.34481 z"
           style="font-weight:bold;font-size:48px;-inkscape-font-specification:'sans-serif, Bold'"
           id="path432" />
        <path
           d="m 302.5861,219.02953 -8.22471,-1.10621 -2.08607,-8.15795 -11.43903,-1.68107 -2.17849,7.7269 -8.01754,-1.07835 11.61685,-38.03416 9.16952,1.79787 z m -12.19516,-16.708 -3.71127,-14.69087 -3.87521,13.49027 z"
           style="font-weight:bold;font-size:48px;-inkscape-font-specification:'sans-serif, Bold'"
           id="path434" />
        <path
           d="m 329.26978,222.61846 -22.25021,-2.99263 0.25664,-38.02163 7.96628,1.56196 -0.21579,30.27073 14.29862,2.09362 z"
           style="font-weight:bold;font-size:48px;-inkscape-font-specification:'sans-serif, Bold'"
           id="path436" />
        <path
           d="m 156.77413,280.76425 -7.93665,-0.22417 0.0176,-21.05871 -11.72604,-0.65103 -0.0105,21.37874 -7.93665,-0.22417 0.0131,-49.01778 7.94754,0.71613 -0.009,17.76129 11.72915,0.79154 0.0147,-17.49541 7.94754,0.71613 z"
           style="font-weight:bold;font-size:48px;-inkscape-font-specification:'sans-serif, Bold'"
           id="path438" />
        <path
           d="m 191.61537,265.40359 c -0.0122,5.57931 -1.17921,9.81176 -3.5007,12.71151 -2.32108,2.91864 -5.73425,4.32432 -10.23982,4.20287 -4.50557,-0.12144 -7.91348,-1.74326 -10.22403,-4.87962 -2.2972,-3.15473 -3.4422,-7.62318 -3.43467,-13.39129 l 0.0391,-29.92074 7.98894,0.71987 -0.045,28.92002 c -0.005,3.2168 0.43924,5.63356 1.33267,7.24745 0.89334,1.61011 2.34607,2.45275 4.35826,2.53076 1.98463,0.0769 3.43313,-0.61521 4.34558,-2.07368 0.92631,-1.45419 1.39267,-3.825 1.39899,-7.11525 l 0.0548,-28.478 7.98893,0.71987 z"
           style="font-weight:bold;font-size:48px;-inkscape-font-specification:'sans-serif, Bold'"
           id="path440" />
        <path
           d="m 231.26286,282.86819 -7.89531,-0.22301 0.0953,-28.91203 -5.76817,18.51814 -5.47888,-0.23451 -5.65452,-19.46142 -0.0798,29.61288 -7.48195,-0.21133 0.10893,-44.69004 9.23074,0.83176 6.86764,22.54284 6.97848,-21.2952 9.23074,0.83176 z"
           style="font-weight:bold;font-size:48px;-inkscape-font-specification:'sans-serif, Bold'"
           id="path442" />
        <path
           d="m 267.55648,283.8933 -8.20534,-0.23176 -2.09065,-8.36462 -11.4121,-0.4652 -2.16385,8.38732 -7.99865,-0.22593 11.5425,-41.39027 9.14796,0.8243 z m -12.18454,-16.22858 -3.71938,-15.05692 -3.84924,14.6625 z"
           style="font-weight:bold;font-size:48px;-inkscape-font-specification:'sans-serif, Bold'"
           id="path444" />
        <path
           d="m 299.96445,284.80866 -7.64728,-0.216 -12.912,-27.62821 -0.1504,27.25927 -7.27526,-0.20549 0.20914,-40.16629 9.49979,0.85601 11.10223,23.28722 0.1361,-22.27456 7.28525,0.65645 z"
           style="font-weight:bold;font-size:48px;-inkscape-font-specification:'sans-serif, Bold'"
           id="path446" />
        <path
           d="m 324.45645,285.50044 -18.0228,-0.50906 0.0455,-6.74283 5.0443,0.19787 0.16998,-24.34318 -5.04877,-0.39962 0.0455,-6.74283 18.04755,1.62622 -0.0498,6.54476 -5.04878,-0.39962 -0.17701,24.02566 5.04431,0.19787 z"
           style="font-weight:bold;font-size:48px;-inkscape-font-specification:'sans-serif, Bold'"
           id="path448" />
        <path
           d="m 355.66412,275.38297 c -0.0319,3.44606 -1.34643,6.20267 -3.94325,8.28465 -2.58246,2.08627 -6.0781,3.07692 -10.48724,2.95734 -2.54903,-0.0691 -4.77213,-0.38859 -6.66936,-0.9609 -1.8834,-0.59158 -3.64865,-1.32203 -5.29576,-2.19221 l 0.069,-8.77903 0.86842,0.0406 c 1.62798,1.62752 3.45162,2.89637 5.47097,3.80875 2.03301,0.90718 3.98664,1.39474 5.861,1.46702 0.48237,0.0186 1.11675,-0.005 1.90316,-0.0707 0.78641,-0.0654 1.42867,-0.20004 1.92677,-0.40384 0.60893,-0.26273 1.10824,-0.60097 1.49792,-1.01472 0.40348,-0.4126 0.60893,-1.03977 0.61636,-1.88197 0.007,-0.77864 -0.27674,-1.45974 -0.85082,-2.04417 -0.56018,-0.60081 -1.39038,-1.08066 -2.4906,-1.4396 -1.15526,-0.37894 -2.37968,-0.73865 -3.67326,-1.07909 -1.27969,-0.35705 -2.48298,-0.78406 -3.60988,-1.28133 -2.58387,-1.13178 -4.44127,-2.58145 -5.57215,-4.34738 -1.11711,-1.78803 -1.66572,-3.95465 -1.64573,-6.49494 0.0268,-3.40889 1.33165,-6.08145 3.91479,-8.0037 2.59749,-1.91859 5.91782,-2.68639 9.96068,-2.31757 2.02833,0.18504 4.02704,0.59805 5.99607,1.23664 1.98289,0.62086 3.6956,1.33287 5.1381,2.13574 l -0.0742,8.07649 -0.84823,-0.0618 c -1.23104,-1.22483 -2.74666,-2.28676 -4.54686,-3.18569 -1.78638,-0.91855 -3.61764,-1.45456 -5.49372,-1.60438 -0.66215,-0.0529 -1.32477,-0.0496 -1.98787,0.01 -0.64916,0.0449 -1.27843,0.18812 -1.88782,0.43007 -0.54,0.19957 -1.0052,0.53457 -1.3956,1.00517 -0.39024,0.4551 -0.58797,0.99806 -0.5932,1.62839 -0.008,0.95358 0.29632,1.71097 0.91265,2.27135 0.61644,0.54315 1.78484,1.0827 3.50519,1.61757 1.12852,0.34864 2.20882,0.685 3.2409,1.00919 1.04585,0.32419 2.16669,0.74773 3.36249,1.26994 2.35012,1.03623 4.07663,2.34978 5.17957,3.94163 1.11673,1.57092 1.66388,3.56025 1.64154,5.97248 z"
           style="font-weight:bold;font-size:48px;-inkscape-font-specification:'sans-serif, Bold'"
           id="path450" />
        <path
           d="m 385.37067,260.4698 -9.62143,-0.75197 -0.2833,27.22337 -7.93665,-0.22417 0.27451,-27.62018 -9.62143,-0.75197 0.0633,-6.73855 27.1955,2.45052 z"
           style="font-weight:bold;font-size:48px;-inkscape-font-specification:'sans-serif, Bold'"
           id="path452" />
        <path
           d="m 437.63633,288.6972 -9.83813,-0.27787 -2.83743,-2.67779 c -1.39281,1.04224 -2.92645,1.80993 -4.60096,2.30124 -1.66065,0.4953 -3.41411,0.71941 -5.26043,0.66964 -3.80287,-0.10251 -6.78153,-1.0848 -8.93625,-2.95837 -2.14111,-1.90275 -3.19394,-4.33079 -3.15825,-7.27261 0.0148,-1.21977 0.20001,-2.273 0.55564,-3.15876 0.35566,-0.88457 0.82051,-1.66874 1.39454,-2.35224 0.54633,-0.66927 1.17419,-1.23227 1.88357,-1.68909 0.70941,-0.45545 1.3835,-0.84065 2.02225,-1.15595 -0.57366,-0.47685 -1.1195,-0.97425 -1.63752,-1.4922 -0.51804,-0.51892 -0.96661,-1.07698 -1.34573,-1.67406 -0.36569,-0.5684 -0.64786,-1.19605 -0.8465,-1.88276 -0.19866,-0.68725 -0.29282,-1.45315 -0.28249,-2.29728 0.0122,-1.00151 0.23064,-1.92201 0.65519,-2.76044 0.42475,-0.85132 1.05534,-1.59082 1.89177,-2.21789 0.86444,-0.65082 2.0169,-1.13146 3.45738,-1.4419 1.45452,-0.32081 3.17527,-0.38946 5.16222,-0.20786 1.66958,0.15259 3.15758,0.45574 4.46397,0.90814 1.30635,0.45066 2.40384,1.01923 3.29246,1.7054 0.83376,0.65168 1.46573,1.40805 1.89595,2.26946 0.44416,0.84735 0.65973,1.74355 0.64674,2.68971 -0.009,0.63077 -0.11471,1.31598 -0.31816,2.05606 -0.18965,0.74166 -0.53733,1.43143 -1.04302,2.06993 -0.5476,0.67831 -1.26689,1.29844 -2.15787,1.86088 -0.89093,0.56465 -2.10494,1.04175 -3.64203,1.43189 l 6.2535,5.93457 0.0907,-6.63282 7.71548,0.49664 -0.0321,2.25084 c -0.0227,1.59519 -0.32021,3.10808 -0.89241,4.54114 -0.57213,1.43637 -1.34741,2.61567 -2.32583,3.53829 l 7.77957,7.02448 z M 418.4844,264.04064 c 0.01,-0.72418 -0.0933,-1.30385 -0.3085,-1.73931 -0.21504,-0.44977 -0.47973,-0.79922 -0.79409,-1.04828 -0.32817,-0.25048 -0.67123,-0.41853 -1.02918,-0.50398 -0.35795,-0.0855 -0.6473,-0.13741 -0.86802,-0.15563 -0.23453,-0.0194 -0.5039,-0.0135 -0.80813,0.0175 -0.29043,0.0323 -0.61651,0.15312 -0.97826,0.36276 -0.29223,0.17334 -0.55122,0.44821 -0.77698,0.82471 -0.22557,0.36276 -0.3424,0.86129 -0.3505,1.49536 -0.0106,0.83134 0.31016,1.65886 0.96229,2.48103 0.65208,0.82015 1.50382,1.67312 2.55519,2.55785 0.78032,-0.56265 1.36843,-1.19969 1.7643,-1.91167 0.40987,-0.72378 0.6205,-1.51694 0.63188,-2.38037 z m 2.88532,18.07068 -8.72546,-8.36483 c -0.27935,0.26633 -0.60292,0.75631 -0.97071,1.47047 -0.36759,0.70108 -0.55702,1.49696 -0.5683,2.3869 -0.012,0.94645 0.15681,1.77384 0.5064,2.48144 0.34975,0.69252 0.78371,1.26773 1.30187,1.72567 0.54553,0.47218 1.1545,0.83344 1.82693,1.08407 0.6724,0.25003 1.33248,0.38706 1.98023,0.41152 0.93716,0.0354 1.76526,-0.0238 2.48431,-0.17734 0.73303,-0.16633 1.4546,-0.50587 2.16473,-1.0179 z"
           style="font-weight:bold;font-size:48px;-inkscape-font-specification:'sans-serif, Bold'"
           id="path454" />
        <path
           d="m 158.19759,338.42216 c -0.005,4.39702 -0.6626,8.37774 -1.9728,11.95113 -1.30991,3.56415 -2.96248,6.35653 -4.95774,8.37552 -1.49975,1.5209 -3.14335,2.63008 -4.93088,3.32534 -1.78747,0.69784 -3.90461,1.14379 -6.35146,1.33589 l -10.82527,0.84991 0.0131,-49.01778 11.14989,-0.18237 c 2.50528,-0.041 4.66619,0.25704 6.48267,0.89169 1.81643,0.61012 3.3435,1.50052 4.5812,2.6706 2.11766,1.95442 3.78021,4.61019 4.98765,7.96753 1.22098,3.32492 1.82882,7.26639 1.82369,11.83254 z m -8.1915,0.29276 c 0.003,-3.14099 -0.36638,-5.80781 -1.10745,-8.00368 -0.72739,-2.22206 -1.88872,-3.94155 -3.48402,-5.1592 -0.81146,-0.59964 -1.64373,-0.99535 -2.49681,-1.18653 -0.8393,-0.21362 -2.11219,-0.29678 -3.81864,-0.24908 l -2.00234,0.056 -0.015,30.37345 2.00061,-0.13375 c 1.88373,-0.12593 3.26568,-0.34779 4.14585,-0.66514 0.8802,-0.33829 1.73995,-0.88966 2.57926,-1.65343 1.44484,-1.37964 2.50509,-3.15922 3.18073,-5.33955 0.67575,-2.19796 1.01503,-4.87669 1.0178,-8.03905 z"
           style="font-weight:bold;font-size:48px;-inkscape-font-specification:'sans-serif, Bold'"
           id="path456" />
        <path
           d="m 186.41995,359.76433 -22.20727,1.74353 0.0613,-46.83982 22.23782,-0.36373 -0.0178,8.79281 -14.34651,0.40694 -0.0125,8.00003 13.31122,-0.52029 -0.0175,8.80519 -13.30768,0.68012 -0.0178,11.45531 14.33442,-0.9529 z"
           style="font-weight:bold;font-size:48px;-inkscape-font-specification:'sans-serif, Bold'"
           id="path458" />
        <path
           d="m 221.03516,313.73964 -11.33574,44.19697 -8.86641,0.69612 -11.10012,-44.3811 8.32112,-0.13611 7.3504,30.9863 7.51611,-31.22946 z"
           style="font-weight:bold;font-size:48px;-inkscape-font-specification:'sans-serif, Bold'"
           id="path460" />
        <path
           d="m 247.51569,354.96758 -22.20726,1.74354 0.14539,-43.04376 22.23783,-0.36373 -0.034,8.05858 -14.34649,0.40694 -0.027,7.34483 13.31121,-0.52029 -0.0338,8.07097 -13.30767,0.68012 -0.0386,10.51713 14.3344,-0.9529 z"
           style="font-weight:bold;font-size:48px;-inkscape-font-specification:'sans-serif, Bold'"
           id="path462" />
        <path
           d="m 276.30059,352.70763 -22.14541,1.73868 0.1851,-41.25143 7.92881,-0.12968 -0.15809,32.87582 14.23129,-0.94604 z"
           style="font-weight:bold;font-size:48px;-inkscape-font-specification:'sans-serif, Bold'"
           id="path464" />
        <path
           d="m 311.05235,331.13999 c -0.042,6.01294 -1.47785,10.88436 -4.30714,14.63885 -2.82845,3.77017 -6.71668,5.86495 -11.66523,6.25988 -4.93481,0.39383 -8.79357,-1.13401 -11.57683,-4.608 -2.78389,-3.52434 -4.1586,-8.46198 -4.12359,-14.78837 0.0353,-6.3797 1.46684,-11.4592 4.29514,-15.21417 2.82911,-3.74009 6.71488,-5.63512 11.65676,-5.70957 4.92812,-0.0742 8.7913,1.6529 11.58899,5.15684 2.79709,3.45424 4.17421,8.20094 4.1319,14.26454 z m -10.56557,10.21473 c 0.77767,-1.21558 1.35734,-2.62215 1.739,-4.22047 0.38181,-1.61354 0.57978,-3.48953 0.59388,-5.62941 0.0151,-2.29397 -0.18528,-4.23692 -0.60121,-5.83052 -0.41598,-1.59583 -0.96475,-2.88066 -1.6463,-3.85449 -0.69513,-1.01004 -1.50224,-1.7351 -2.4213,-2.17446 -0.90533,-0.44112 -1.85343,-0.64891 -2.84431,-0.62238 -1.00463,0.0269 -1.95561,0.27834 -2.85291,0.75526 -0.8835,0.47782 -1.69996,1.25166 -2.44935,2.32241 -0.69389,1.00143 -1.26613,2.37722 -1.71671,4.12759 -0.43667,1.7347 -0.6617,3.74314 -0.67515,6.02358 -0.0137,2.33307 0.18082,4.31288 0.58367,5.9378 0.41667,1.60442 0.96569,2.90108 1.64708,3.88994 0.68134,0.98659 1.48115,1.69288 2.39943,2.11948 0.91825,0.42517 1.8861,0.60258 2.90356,0.53333 1.01747,-0.0692 1.98834,-0.37708 2.91265,-0.9224 0.92445,-0.56112 1.73377,-1.37974 2.42797,-2.45526 z"
           style="font-weight:bold;font-size:48px;-inkscape-font-specification:'sans-serif, Bold'"
           id="path466" />
        <path
           d="m 342.51349,323.04325 c -0.0137,1.60173 -0.26792,3.1814 -0.76257,4.74095 -0.49445,1.54606 -1.19314,2.86382 -2.09604,3.95379 -1.23603,1.48154 -2.61346,2.62952 -4.13233,3.4423 -1.50503,0.81578 -3.37835,1.29036 -5.62001,1.42093 l -4.93028,0.28718 -0.092,12.00515 -7.91791,0.62165 0.27155,-37.34903 13.04949,-0.21344 c 1.95467,-0.032 3.59797,0.14437 4.92988,0.52762 1.34577,0.36498 2.53152,0.93302 3.55725,1.70337 1.23076,0.92392 2.16328,2.11584 2.79758,3.57631 0.64798,1.45677 0.96309,3.217 0.94539,5.28322 z m -8.19546,0.51394 c 0.008,-1.02344 -0.21846,-1.89293 -0.68039,-2.60935 -0.46181,-0.73388 -1.00117,-1.23864 -1.61807,-1.51384 -0.82256,-0.36791 -1.62593,-0.55759 -2.41009,-0.56829 -0.78403,-0.0272 -1.82973,-0.0225 -3.1371,0.014 l -1.36241,0.0381 -0.0846,11.0398 2.26975,-0.10568 c 1.3481,-0.0628 2.45625,-0.21254 3.32444,-0.4489 0.88196,-0.23641 1.62107,-0.6613 2.21732,-1.27421 0.51322,-0.5431 0.88279,-1.17674 1.10872,-1.90122 0.23983,-0.74073 0.36397,-1.63072 0.37243,-2.67039 z"
           style="font-weight:bold;font-size:48px;-inkscape-font-specification:'sans-serif, Bold'"
           id="path468" />
        <path
           d="m 370.11956,345.34173 -22.20725,1.74353 0.31414,-35.42601 22.23782,-0.36373 -0.0667,6.58516 -14.3465,0.40694 -0.0561,6.03002 13.31122,-0.52029 -0.0664,6.59756 -13.30768,0.68012 -0.0803,8.63443 14.33441,-0.9529 z"
           style="font-weight:bold;font-size:48px;-inkscape-font-specification:'sans-serif, Bold'"
           id="path470" />
        <path
           d="m 394.23832,320.87733 c 0.009,-0.81646 -0.14067,-1.51115 -0.45041,-2.08459 -0.30975,-0.57414 -0.84801,-1.01813 -1.61479,-1.33218 -0.53402,-0.21902 -1.15859,-0.34067 -1.8737,-0.36468 -0.71495,-0.0388 -1.54721,-0.0451 -2.49677,-0.0187 l -2.86934,0.0797 -0.0982,8.92604 2.43494,-0.10839 c 1.26562,-0.0563 2.32563,-0.16967 3.18005,-0.33968 0.85443,-0.16958 1.57323,-0.5011 2.1564,-0.99409 0.55551,-0.47622 0.96022,-0.98911 1.21411,-1.53903 0.26782,-0.56451 0.40707,-1.30583 0.41771,-2.22435 z m 12.08918,21.62164 -9.67056,0.75926 -8.23598,-11.41323 -3.6515,0.20339 -0.13373,12.15364 -7.87666,0.61842 0.35384,-33.63368 13.29727,-0.21749 c 1.81702,-0.0297 3.37812,0.0542 4.68327,0.25091 1.30513,0.19563 2.52465,0.6452 3.65854,1.34715 1.14757,0.69847 2.05162,1.61514 2.71214,2.75016 0.6744,1.11729 1.00113,2.53592 0.98024,4.25817 -0.0287,2.36809 -0.5818,4.32055 -1.65914,5.86198 -1.06344,1.54689 -2.57766,2.86955 -4.54263,3.96906 z"
           style="font-weight:bold;font-size:48px;-inkscape-font-specification:'sans-serif, Bold'"
           id="path472" />
        <path
           d="m 431.53951,308.93536 -16.8876,39.70815 -6.3283,0.58258 16.81465,-40.20391 z"
           style="font-weight:bold;font-size:48px;-inkscape-font-specification:'sans-serif, Bold'"
           id="path474" />
        <path
           d="m 158.10649,419.59806 c -0.005,4.39703 -0.66105,8.4475 -1.96816,12.16039 -1.30682,3.70365 -2.95549,6.67224 -4.94604,8.90416 -1.49619,1.68096 -3.13591,2.96561 -4.91921,3.85177 -1.78324,0.88874 -3.89537,1.56083 -6.33644,2.01431 l -10.79965,2.00631 0.0131,-49.01778 11.12353,-1.37181 c 2.49936,-0.30823 4.65516,-0.24076 6.46735,0.20006 1.81214,0.41628 3.3356,1.14369 4.57037,2.1816 2.11266,1.72829 3.77127,4.20638 4.97584,7.4345 1.21809,3.19422 1.82448,7.07035 1.81935,11.63649 z m -8.17213,1.16722 c 0.003,-3.14099 -0.3655,-5.76816 -1.10481,-7.88474 -0.72567,-2.14423 -1.88425,-3.73963 -3.47578,-4.78695 -0.80954,-0.51299 -1.63984,-0.81987 -2.4909,-0.92 -0.83732,-0.12405 -2.10719,-0.0714 -3.80962,0.1584 l -1.9976,0.26962 -0.015,30.37346 1.99588,-0.34741 c 1.87928,-0.32711 3.25796,-0.69654 4.13605,-1.10787 0.87812,-0.43228 1.73583,-1.07542 2.57315,-1.92877 1.44143,-1.53382 2.49917,-3.42647 3.17323,-5.67875 0.67415,-2.26992 1.01263,-4.98463 1.0154,-8.14699 z"
           style="font-weight:bold;font-size:48px;-inkscape-font-specification:'sans-serif, Bold'"
           id="path476" />
        <path
           d="m 186.262,437.92259 -22.15471,4.1158 0.0613,-46.83982 22.18528,-2.73599 -0.0178,8.7928 -14.3126,1.93779 -0.0125,8.00003 13.27975,-1.941 -0.0175,8.80519 -13.27621,2.10084 -0.0178,11.45531 14.3005,-2.48375 z"
           style="font-weight:bold;font-size:48px;-inkscape-font-specification:'sans-serif, Bold'"
           id="path478" />
        <path
           d="m 217.44851,418.45812 c -0.0133,4.28676 -1.30657,8.00201 -3.87954,11.16053 -2.55877,3.15606 -6.03215,5.15151 -10.42047,5.97172 -2.53699,0.47419 -4.75094,0.5679 -6.64191,0.2786 -1.87728,-0.31534 -3.63767,-0.82699 -5.28121,-1.53581 l 0.0237,-10.82538 0.86433,-0.14442 c 1.62827,1.64105 3.44944,2.79826 5.46354,3.47381 2.02769,0.66741 3.97425,0.83539 5.83976,0.50825 0.4801,-0.0842 1.11124,-0.25438 1.89342,-0.51035 0.78219,-0.25573 1.42058,-0.56515 1.91515,-0.92818 0.60455,-0.46074 1.09961,-0.99068 1.48519,-1.58985 0.39931,-0.60094 0.60044,-1.42355 0.60337,-2.46828 0.003,-0.96589 -0.28308,-1.74582 -0.85739,-2.34065 -0.56055,-0.61796 -1.38914,-1.02522 -2.48577,-1.22181 -1.15149,-0.20867 -2.37169,-0.3777 -3.6606,-0.50703 -1.27516,-0.15271 -2.47466,-0.40872 -3.5985,-0.76835 -2.57681,-0.81275 -4.43237,-2.17973 -5.56666,-4.09933 -1.12066,-1.94845 -1.67762,-4.49144 -1.67075,-7.62404 0.009,-4.20374 1.29365,-7.79716 3.8536,-10.76627 2.57415,-2.9722 5.87328,-4.69706 9.89708,-5.18875 2.01877,-0.24668 4.00926,-0.20411 5.97144,0.12533 1.9759,0.30495 3.68351,0.78697 5.12283,1.4458 l -0.0307,10.04259 -0.84425,0.11883 c -1.23127,-1.23565 -2.74478,-2.20234 -4.54052,-2.89996 -1.78207,-0.724 -3.60675,-0.96303 -5.47398,-0.71344 -0.65902,0.0881 -1.31823,0.2457 -1.97761,0.47299 -0.64559,0.20582 -1.2709,0.52856 -1.8759,0.96851 -0.5362,0.37143 -0.99727,0.89272 -1.38322,1.56401 -0.38589,0.65197 -0.57979,1.36788 -0.58171,2.14725 -0.003,1.17904 0.3037,2.04423 0.91982,2.59473 0.61614,0.52945 1.78142,0.92827 3.49584,1.19539 1.12462,0.17278 2.20121,0.34165 3.22976,0.50672 1.04226,0.16213 2.15966,0.43039 3.35218,0.80409 2.34373,0.74802 4.06853,1.98385 5.1744,3.70849 1.11952,1.69695 1.67458,4.04354 1.66528,7.04426 z"
           style="font-weight:bold;font-size:48px;-inkscape-font-specification:'sans-serif, Bold'"
           id="path480" />
        <path
           d="m 239.37571,428.05538 -17.93771,3.33238 0.0249,-7.67164 5.0205,-0.87703 0.0951,-27.7242 -5.02496,0.67528 0.0249,-7.67164 17.96245,-2.21522 -0.0293,7.47357 -5.02496,0.67528 -0.10212,27.40668 5.0205,-0.87703 z"
           style="font-weight:bold;font-size:48px;-inkscape-font-specification:'sans-serif, Bold'"
           id="path482" />
        <path
           d="m 272.91812,419.53923 c -1.37515,0.95095 -3.19595,1.98707 -5.46236,3.10982 -2.26622,1.10951 -4.52379,1.87644 -6.7728,2.29718 -5.21111,0.97488 -9.28247,-0.17126 -12.21467,-3.46381 -2.93286,-3.34512 -4.38559,-8.44168 -4.35764,-15.26414 0.0267,-6.50383 1.53768,-11.9465 4.53366,-16.30164 2.99684,-4.33849 7.15978,-6.8198 12.48824,-7.47046 2.01877,-0.24651 3.94019,-0.23611 5.76423,0.0292 1.82408,0.24447 3.8516,0.93769 6.08247,2.07428 l -0.0495,9.39218 -0.88539,0.12596 c -0.38239,-0.32283 -0.94245,-0.77386 -1.6802,-1.35394 -0.73769,-0.59968 -1.44851,-1.09643 -2.13246,-1.48981 -0.79334,-0.46992 -1.72441,-0.84115 -2.79322,-1.11365 -1.05509,-0.27573 -2.17989,-0.33421 -3.37437,-0.17444 -1.40042,0.18731 -2.6717,0.63196 -3.81381,1.33539 -1.14207,0.70532 -2.16875,1.69117 -3.08002,2.95847 -0.86985,1.22772 -1.56255,2.73786 -2.0781,4.53022 -0.50169,1.77446 -0.75747,3.78274 -0.76737,6.02295 -0.0202,4.573 0.86294,7.92264 2.64927,10.03906 1.78605,2.10331 4.43473,2.84177 7.94626,2.22525 0.30178,-0.053 0.63103,-0.11987 0.98775,-0.20064 0.37045,-0.0832 0.70665,-0.16939 1.0086,-0.25868 l 0.0393,-7.95469 -6.11257,0.99726 0.0362,-7.72683 14.14285,-2.1407 z"
           style="font-weight:bold;font-size:48px;-inkscape-font-specification:'sans-serif, Bold'"
           id="path484" />
        <path
           d="m 307.8352,415.33731 -7.61118,1.41397 -12.84206,-24.47122 -0.15866,26.88643 -7.24091,1.34518 0.22117,-39.62307 9.45501,-1.16604 11.04234,20.58395 0.14299,-21.96338 7.2509,-0.89421 z"
           style="font-weight:bold;font-size:48px;-inkscape-font-specification:'sans-serif, Bold'"
           id="path486" />
        <path
           d="m 337.80681,409.76933 -22.15472,4.11579 0.27038,-37.40155 22.18528,-2.73599 -0.0582,6.96727 -14.31258,1.93779 -0.0485,6.37099 13.27974,-1.941 -0.0579,6.97966 -13.2762,2.10083 -0.0695,9.12269 14.30049,-2.48375 z"
           style="font-weight:bold;font-size:48px;-inkscape-font-specification:'sans-serif, Bold'"
           id="path488" />
        <path
           d="m 361.83874,381.38592 c 0.008,-0.866 -0.14233,-1.58625 -0.45211,-2.1613 -0.30979,-0.57575 -0.84738,-0.98959 -1.61279,-1.24175 -0.53306,-0.17591 -1.15633,-0.23915 -1.86981,-0.18946 -0.71333,0.034 -1.54366,0.11482 -2.49099,0.24252 l -2.86255,0.38588 -0.0864,9.45806 2.42918,-0.3683 c 1.26263,-0.19143 2.32005,-0.42181 3.17228,-0.69083 0.85223,-0.26859 1.56893,-0.69459 2.15012,-1.27756 0.5536,-0.56237 0.9567,-1.14793 1.20927,-1.757 0.26647,-0.62603 0.40442,-1.42596 0.41383,-2.40021 z m 12.09032,21.67279 -9.64769,1.7923 -8.2322,-11.24335 -3.64287,0.59326 -0.11768,12.87805 -7.85803,1.45982 0.31008,-35.60921 13.26585,-1.63601 c 1.81272,-0.22355 3.37028,-0.29968 4.67264,-0.22919 1.30233,0.0694 2.51959,0.41703 3.65175,1.04132 1.14583,0.61935 2.04899,1.49586 2.70949,2.62969 0.67431,1.11374 1.00217,2.58367 0.98364,4.41206 -0.0255,2.51403 -0.57468,4.64199 -1.64747,6.38847 -1.05894,1.75049 -2.56792,3.30972 -4.52692,4.67878 z"
           style="font-weight:bold;font-size:48px;-inkscape-font-specification:'sans-serif, Bold'"
           id="path490" />
      </g>
      <g
         aria-label="DIGITAL HUMANIST &amp; DEVELOPER/DESIGNER"
         transform="matrix(0.26458333,0,2.4463948e-4,0.26458333,0.97879262,-0.30884666)"
         id="text111-2"
         style="white-space:pre;shape-inside:url(#rect113);fill:#cccccc">
        <path
           d="m 158.37979,176.07034 c -0.005,4.39703 -0.66569,8.23824 -1.98207,11.53263 -1.31609,3.28515 -2.97647,5.7251 -4.98117,7.31824 -1.50683,1.20078 -3.15822,1.959 -4.9542,2.27248 -1.79593,0.31604 -3.92309,0.30971 -6.38152,-0.0209 l -10.8765,-1.46288 0.0131,-49.01778 11.20258,2.1965 c 2.51712,0.49353 4.68824,1.25264 6.51331,2.27496 1.82502,0.99778 3.35931,2.21418 4.60286,3.64857 2.12769,2.40671 3.79811,5.41784 5.01127,9.03363 1.22677,3.58629 1.8375,7.65846 1.83238,12.2246 z m -8.23025,-1.45615 c 0.003,-3.14099 -0.36813,-5.8871 -1.11271,-8.24157 -0.73084,-2.37771 -1.89767,-4.34536 -3.50052,-5.9037 -0.81529,-0.7729 -1.6515,-1.3463 -2.50861,-1.71957 -0.84327,-0.39276 -2.12218,-0.74758 -3.8367,-1.06406 l -2.01181,-0.37135 -0.015,30.37345 2.01008,0.29357 c 1.89265,0.27642 3.28114,0.34971 4.16547,0.22032 0.88437,-0.15033 1.74818,-0.51815 2.59145,-1.10276 1.45167,-1.07127 2.51693,-2.62471 3.19577,-4.66113 0.67893,-2.05405 1.01981,-4.66084 1.02257,-7.8232 z"
           style="font-weight:bold;font-size:48px;-inkscape-font-specification:'sans-serif, Bold';fill:#cccccc"
           id="path424-2" />
        <path
           d="m 181.10078,202.68988 -18.06535,-2.42977 0.0105,-8.31993 5.05621,0.73531 0.0428,-30.08404 -5.06068,-0.93706 0.0105,-8.31993 18.09009,3.54693 -0.0149,8.12186 -5.06068,-0.93707 -0.0498,29.76653 5.05622,0.73532 z"
           style="font-weight:bold;font-size:48px;-inkscape-font-specification:'sans-serif, Bold';fill:#cccccc"
           id="path426-7" />
        <path
           d="m 214.87716,204.736 c -1.3835,0.57426 -3.21581,1.09053 -5.49691,1.55024 -2.28094,0.44485 -4.55387,0.5182 -6.81888,0.21647 -5.24819,-0.69914 -9.35233,-3.32448 -12.31298,-7.90141 -2.96135,-4.63114 -4.43493,-10.66866 -4.42017,-18.08701 0.0141,-7.0719 1.52555,-12.49416 4.53502,-16.2404 3.01029,-3.73123 7.19889,-5.05429 12.56521,-3.99569 2.03311,0.40107 3.96869,1.05032 5.80669,1.9457 1.83799,0.87294 3.88186,2.30411 6.1315,4.28809 l -0.0305,10.24919 -0.89169,-0.15819 c -0.38589,-0.48055 -0.95101,-1.1605 -1.69541,-2.04067 -0.74437,-0.90141 -1.46147,-1.68126 -2.15127,-2.33911 -0.80016,-0.77781 -1.73887,-1.49363 -2.81611,-2.1474 -1.06346,-0.65258 -2.19668,-1.09113 -3.39964,-1.31462 -1.41037,-0.26203 -2.69014,-0.20031 -3.83926,0.18658 -1.14908,0.38879 -2.18136,1.12175 -3.09683,2.1998 -0.87382,1.04841 -1.56862,2.46352 -2.08442,4.24514 -0.50186,1.76647 -0.75553,3.86981 -0.76105,6.3081 -0.0113,4.97736 0.88515,8.92496 2.68902,11.83294 1.80358,2.89485 4.47352,4.59297 8.01003,5.10421 0.30392,0.0439 0.6355,0.082 0.99473,0.11409 0.37304,0.0342 0.71158,0.0534 1.01561,0.0577 l 0.0234,-8.67173 -6.15604,-0.96531 0.0209,-8.41686 14.24341,2.39898 z"
           style="font-weight:bold;font-size:48px;-inkscape-font-specification:'sans-serif, Bold';fill:#cccccc"
           id="path428-1" />
        <path
           d="m 238.67371,210.43338 -18.06534,-2.42977 0.0245,-7.68868 5.05621,0.73531 0.0937,-27.7862 -5.06068,-0.93707 0.0245,-7.68868 18.0901,3.54693 -0.0289,7.49061 -5.06068,-0.93706 -0.10074,27.46869 5.05621,0.73531 z"
           style="font-weight:bold;font-size:48px;-inkscape-font-specification:'sans-serif, Bold';fill:#cccccc"
           id="path430-5" />
        <path
           d="m 269.45897,182.00245 -9.64411,-1.7762 -0.15468,33.02979 -7.95538,-1.06999 0.14588,-33.4266 -9.64411,-1.77621 0.0324,-8.13093 27.25961,5.34481 z"
           style="font-weight:bold;font-size:48px;-inkscape-font-specification:'sans-serif, Bold';fill:#cccccc"
           id="path432-2" />
        <path
           d="m 302.5861,219.02953 -8.22471,-1.10621 -2.08607,-8.15795 -11.43903,-1.68107 -2.17849,7.7269 -8.01754,-1.07835 11.61685,-38.03416 9.16952,1.79787 z m -12.19516,-16.708 -3.71127,-14.69087 -3.87521,13.49027 z"
           style="font-weight:bold;font-size:48px;-inkscape-font-specification:'sans-serif, Bold';fill:#cccccc"
           id="path434-1" />
        <path
           d="m 329.26978,222.61846 -22.25021,-2.99263 0.25664,-38.02163 7.96628,1.56196 -0.21579,30.27073 14.29862,2.09362 z"
           style="font-weight:bold;font-size:48px;-inkscape-font-specification:'sans-serif, Bold';fill:#cccccc"
           id="path436-1" />
        <path
           d="m 156.77413,280.76425 -7.93665,-0.22417 0.0176,-21.05871 -11.72604,-0.65103 -0.0105,21.37874 -7.93665,-0.22417 0.0131,-49.01778 7.94754,0.71613 -0.009,17.76129 11.72915,0.79154 0.0147,-17.49541 7.94754,0.71613 z"
           style="font-weight:bold;font-size:48px;-inkscape-font-specification:'sans-serif, Bold';fill:#cccccc"
           id="path438-0" />
        <path
           d="m 191.61537,265.40359 c -0.0122,5.57931 -1.17921,9.81176 -3.5007,12.71151 -2.32108,2.91864 -5.73425,4.32432 -10.23982,4.20287 -4.50557,-0.12144 -7.91348,-1.74326 -10.22403,-4.87962 -2.2972,-3.15473 -3.4422,-7.62318 -3.43467,-13.39129 l 0.0391,-29.92074 7.98894,0.71987 -0.045,28.92002 c -0.005,3.2168 0.43924,5.63356 1.33267,7.24745 0.89334,1.61011 2.34607,2.45275 4.35826,2.53076 1.98463,0.0769 3.43313,-0.61521 4.34558,-2.07368 0.92631,-1.45419 1.39267,-3.825 1.39899,-7.11525 l 0.0548,-28.478 7.98893,0.71987 z"
           style="font-weight:bold;font-size:48px;-inkscape-font-specification:'sans-serif, Bold';fill:#cccccc"
           id="path440-1" />
        <path
           d="m 231.26286,282.86819 -7.89531,-0.22301 0.0953,-28.91203 -5.76817,18.51814 -5.47888,-0.23451 -5.65452,-19.46142 -0.0798,29.61288 -7.48195,-0.21133 0.10893,-44.69004 9.23074,0.83176 6.86764,22.54284 6.97848,-21.2952 9.23074,0.83176 z"
           style="font-weight:bold;font-size:48px;-inkscape-font-specification:'sans-serif, Bold';fill:#cccccc"
           id="path442-8" />
        <path
           d="m 267.55648,283.8933 -8.20534,-0.23176 -2.09065,-8.36462 -11.4121,-0.4652 -2.16385,8.38732 -7.99865,-0.22593 11.5425,-41.39027 9.14796,0.8243 z m -12.18454,-16.22858 -3.71938,-15.05692 -3.84924,14.6625 z"
           style="font-weight:bold;font-size:48px;-inkscape-font-specification:'sans-serif, Bold';fill:#cccccc"
           id="path444-7" />
        <path
           d="m 299.96445,284.80866 -7.64728,-0.216 -12.912,-27.62821 -0.1504,27.25927 -7.27526,-0.20549 0.20914,-40.16629 9.49979,0.85601 11.10223,23.28722 0.1361,-22.27456 7.28525,0.65645 z"
           style="font-weight:bold;font-size:48px;-inkscape-font-specification:'sans-serif, Bold';fill:#cccccc"
           id="path446-6" />
        <path
           d="m 324.45645,285.50044 -18.0228,-0.50906 0.0455,-6.74283 5.0443,0.19787 0.16998,-24.34318 -5.04877,-0.39962 0.0455,-6.74283 18.04755,1.62622 -0.0498,6.54476 -5.04878,-0.39962 -0.17701,24.02566 5.04431,0.19787 z"
           style="font-weight:bold;font-size:48px;-inkscape-font-specification:'sans-serif, Bold';fill:#cccccc"
           id="path448-0" />
        <path
           d="m 355.66412,275.38297 c -0.0319,3.44606 -1.34643,6.20267 -3.94325,8.28465 -2.58246,2.08627 -6.0781,3.07692 -10.48724,2.95734 -2.54903,-0.0691 -4.77213,-0.38859 -6.66936,-0.9609 -1.8834,-0.59158 -3.64865,-1.32203 -5.29576,-2.19221 l 0.069,-8.77903 0.86842,0.0406 c 1.62798,1.62752 3.45162,2.89637 5.47097,3.80875 2.03301,0.90718 3.98664,1.39474 5.861,1.46702 0.48237,0.0186 1.11675,-0.005 1.90316,-0.0707 0.78641,-0.0654 1.42867,-0.20004 1.92677,-0.40384 0.60893,-0.26273 1.10824,-0.60097 1.49792,-1.01472 0.40348,-0.4126 0.60893,-1.03977 0.61636,-1.88197 0.007,-0.77864 -0.27674,-1.45974 -0.85082,-2.04417 -0.56018,-0.60081 -1.39038,-1.08066 -2.4906,-1.4396 -1.15526,-0.37894 -2.37968,-0.73865 -3.67326,-1.07909 -1.27969,-0.35705 -2.48298,-0.78406 -3.60988,-1.28133 -2.58387,-1.13178 -4.44127,-2.58145 -5.57215,-4.34738 -1.11711,-1.78803 -1.66572,-3.95465 -1.64573,-6.49494 0.0268,-3.40889 1.33165,-6.08145 3.91479,-8.0037 2.59749,-1.91859 5.91782,-2.68639 9.96068,-2.31757 2.02833,0.18504 4.02704,0.59805 5.99607,1.23664 1.98289,0.62086 3.6956,1.33287 5.1381,2.13574 l -0.0742,8.07649 -0.84823,-0.0618 c -1.23104,-1.22483 -2.74666,-2.28676 -4.54686,-3.18569 -1.78638,-0.91855 -3.61764,-1.45456 -5.49372,-1.60438 -0.66215,-0.0529 -1.32477,-0.0496 -1.98787,0.01 -0.64916,0.0449 -1.27843,0.18812 -1.88782,0.43007 -0.54,0.19957 -1.0052,0.53457 -1.3956,1.00517 -0.39024,0.4551 -0.58797,0.99806 -0.5932,1.62839 -0.008,0.95358 0.29632,1.71097 0.91265,2.27135 0.61644,0.54315 1.78484,1.0827 3.50519,1.61757 1.12852,0.34864 2.20882,0.685 3.2409,1.00919 1.04585,0.32419 2.16669,0.74773 3.36249,1.26994 2.35012,1.03623 4.07663,2.34978 5.17957,3.94163 1.11673,1.57092 1.66388,3.56025 1.64154,5.97248 z"
           style="font-weight:bold;font-size:48px;-inkscape-font-specification:'sans-serif, Bold';fill:#cccccc"
           id="path450-0" />
        <path
           d="m 385.37067,260.4698 -9.62143,-0.75197 -0.2833,27.22337 -7.93665,-0.22417 0.27451,-27.62018 -9.62143,-0.75197 0.0633,-6.73855 27.1955,2.45052 z"
           style="font-weight:bold;font-size:48px;-inkscape-font-specification:'sans-serif, Bold';fill:#cccccc"
           id="path452-9" />
        <path
           d="m 437.63633,288.6972 -9.83813,-0.27787 -2.83743,-2.67779 c -1.39281,1.04224 -2.92645,1.80993 -4.60096,2.30124 -1.66065,0.4953 -3.41411,0.71941 -5.26043,0.66964 -3.80287,-0.10251 -6.78153,-1.0848 -8.93625,-2.95837 -2.14111,-1.90275 -3.19394,-4.33079 -3.15825,-7.27261 0.0148,-1.21977 0.20001,-2.273 0.55564,-3.15876 0.35566,-0.88457 0.82051,-1.66874 1.39454,-2.35224 0.54633,-0.66927 1.17419,-1.23227 1.88357,-1.68909 0.70941,-0.45545 1.3835,-0.84065 2.02225,-1.15595 -0.57366,-0.47685 -1.1195,-0.97425 -1.63752,-1.4922 -0.51804,-0.51892 -0.96661,-1.07698 -1.34573,-1.67406 -0.36569,-0.5684 -0.64786,-1.19605 -0.8465,-1.88276 -0.19866,-0.68725 -0.29282,-1.45315 -0.28249,-2.29728 0.0122,-1.00151 0.23064,-1.92201 0.65519,-2.76044 0.42475,-0.85132 1.05534,-1.59082 1.89177,-2.21789 0.86444,-0.65082 2.0169,-1.13146 3.45738,-1.4419 1.45452,-0.32081 3.17527,-0.38946 5.16222,-0.20786 1.66958,0.15259 3.15758,0.45574 4.46397,0.90814 1.30635,0.45066 2.40384,1.01923 3.29246,1.7054 0.83376,0.65168 1.46573,1.40805 1.89595,2.26946 0.44416,0.84735 0.65973,1.74355 0.64674,2.68971 -0.009,0.63077 -0.11471,1.31598 -0.31816,2.05606 -0.18965,0.74166 -0.53733,1.43143 -1.04302,2.06993 -0.5476,0.67831 -1.26689,1.29844 -2.15787,1.86088 -0.89093,0.56465 -2.10494,1.04175 -3.64203,1.43189 l 6.2535,5.93457 0.0907,-6.63282 7.71548,0.49664 -0.0321,2.25084 c -0.0227,1.59519 -0.32021,3.10808 -0.89241,4.54114 -0.57213,1.43637 -1.34741,2.61567 -2.32583,3.53829 l 7.77957,7.02448 z M 418.4844,264.04064 c 0.01,-0.72418 -0.0933,-1.30385 -0.3085,-1.73931 -0.21504,-0.44977 -0.47973,-0.79922 -0.79409,-1.04828 -0.32817,-0.25048 -0.67123,-0.41853 -1.02918,-0.50398 -0.35795,-0.0855 -0.6473,-0.13741 -0.86802,-0.15563 -0.23453,-0.0194 -0.5039,-0.0135 -0.80813,0.0175 -0.29043,0.0323 -0.61651,0.15312 -0.97826,0.36276 -0.29223,0.17334 -0.55122,0.44821 -0.77698,0.82471 -0.22557,0.36276 -0.3424,0.86129 -0.3505,1.49536 -0.0106,0.83134 0.31016,1.65886 0.96229,2.48103 0.65208,0.82015 1.50382,1.67312 2.55519,2.55785 0.78032,-0.56265 1.36843,-1.19969 1.7643,-1.91167 0.40987,-0.72378 0.6205,-1.51694 0.63188,-2.38037 z m 2.88532,18.07068 -8.72546,-8.36483 c -0.27935,0.26633 -0.60292,0.75631 -0.97071,1.47047 -0.36759,0.70108 -0.55702,1.49696 -0.5683,2.3869 -0.012,0.94645 0.15681,1.77384 0.5064,2.48144 0.34975,0.69252 0.78371,1.26773 1.30187,1.72567 0.54553,0.47218 1.1545,0.83344 1.82693,1.08407 0.6724,0.25003 1.33248,0.38706 1.98023,0.41152 0.93716,0.0354 1.76526,-0.0238 2.48431,-0.17734 0.73303,-0.16633 1.4546,-0.50587 2.16473,-1.0179 z"
           style="font-weight:bold;font-size:48px;-inkscape-font-specification:'sans-serif, Bold';fill:#cccccc"
           id="path454-5" />
        <path
           d="m 158.19759,338.42216 c -0.005,4.39702 -0.6626,8.37774 -1.9728,11.95113 -1.30991,3.56415 -2.96248,6.35653 -4.95774,8.37552 -1.49975,1.5209 -3.14335,2.63008 -4.93088,3.32534 -1.78747,0.69784 -3.90461,1.14379 -6.35146,1.33589 l -10.82527,0.84991 0.0131,-49.01778 11.14989,-0.18237 c 2.50528,-0.041 4.66619,0.25704 6.48267,0.89169 1.81643,0.61012 3.3435,1.50052 4.5812,2.6706 2.11766,1.95442 3.78021,4.61019 4.98765,7.96753 1.22098,3.32492 1.82882,7.26639 1.82369,11.83254 z m -8.1915,0.29276 c 0.003,-3.14099 -0.36638,-5.80781 -1.10745,-8.00368 -0.72739,-2.22206 -1.88872,-3.94155 -3.48402,-5.1592 -0.81146,-0.59964 -1.64373,-0.99535 -2.49681,-1.18653 -0.8393,-0.21362 -2.11219,-0.29678 -3.81864,-0.24908 l -2.00234,0.056 -0.015,30.37345 2.00061,-0.13375 c 1.88373,-0.12593 3.26568,-0.34779 4.14585,-0.66514 0.8802,-0.33829 1.73995,-0.88966 2.57926,-1.65343 1.44484,-1.37964 2.50509,-3.15922 3.18073,-5.33955 0.67575,-2.19796 1.01503,-4.87669 1.0178,-8.03905 z"
           style="font-weight:bold;font-size:48px;-inkscape-font-specification:'sans-serif, Bold';fill:#cccccc"
           id="path456-6" />
        <path
           d="m 186.41995,359.76433 -22.20727,1.74353 0.0613,-46.83982 22.23782,-0.36373 -0.0178,8.79281 -14.34651,0.40694 -0.0125,8.00003 13.31122,-0.52029 -0.0175,8.80519 -13.30768,0.68012 -0.0178,11.45531 14.33442,-0.9529 z"
           style="font-weight:bold;font-size:48px;-inkscape-font-specification:'sans-serif, Bold';fill:#cccccc"
           id="path458-2" />
        <path
           d="m 221.03516,313.73964 -11.33574,44.19697 -8.86641,0.69612 -11.10012,-44.3811 8.32112,-0.13611 7.3504,30.9863 7.51611,-31.22946 z"
           style="font-weight:bold;font-size:48px;-inkscape-font-specification:'sans-serif, Bold';fill:#cccccc"
           id="path460-8" />
        <path
           d="m 247.51569,354.96758 -22.20726,1.74354 0.14539,-43.04376 22.23783,-0.36373 -0.034,8.05858 -14.34649,0.40694 -0.027,7.34483 13.31121,-0.52029 -0.0338,8.07097 -13.30767,0.68012 -0.0386,10.51713 14.3344,-0.9529 z"
           style="font-weight:bold;font-size:48px;-inkscape-font-specification:'sans-serif, Bold';fill:#cccccc"
           id="path462-5" />
        <path
           d="m 276.30059,352.70763 -22.14541,1.73868 0.1851,-41.25143 7.92881,-0.12968 -0.15809,32.87582 14.23129,-0.94604 z"
           style="font-weight:bold;font-size:48px;-inkscape-font-specification:'sans-serif, Bold';fill:#cccccc"
           id="path464-9" />
        <path
           d="m 311.05235,331.13999 c -0.042,6.01294 -1.47785,10.88436 -4.30714,14.63885 -2.82845,3.77017 -6.71668,5.86495 -11.66523,6.25988 -4.93481,0.39383 -8.79357,-1.13401 -11.57683,-4.608 -2.78389,-3.52434 -4.1586,-8.46198 -4.12359,-14.78837 0.0353,-6.3797 1.46684,-11.4592 4.29514,-15.21417 2.82911,-3.74009 6.71488,-5.63512 11.65676,-5.70957 4.92812,-0.0742 8.7913,1.6529 11.58899,5.15684 2.79709,3.45424 4.17421,8.20094 4.1319,14.26454 z m -10.56557,10.21473 c 0.77767,-1.21558 1.35734,-2.62215 1.739,-4.22047 0.38181,-1.61354 0.57978,-3.48953 0.59388,-5.62941 0.0151,-2.29397 -0.18528,-4.23692 -0.60121,-5.83052 -0.41598,-1.59583 -0.96475,-2.88066 -1.6463,-3.85449 -0.69513,-1.01004 -1.50224,-1.7351 -2.4213,-2.17446 -0.90533,-0.44112 -1.85343,-0.64891 -2.84431,-0.62238 -1.00463,0.0269 -1.95561,0.27834 -2.85291,0.75526 -0.8835,0.47782 -1.69996,1.25166 -2.44935,2.32241 -0.69389,1.00143 -1.26613,2.37722 -1.71671,4.12759 -0.43667,1.7347 -0.6617,3.74314 -0.67515,6.02358 -0.0137,2.33307 0.18082,4.31288 0.58367,5.9378 0.41667,1.60442 0.96569,2.90108 1.64708,3.88994 0.68134,0.98659 1.48115,1.69288 2.39943,2.11948 0.91825,0.42517 1.8861,0.60258 2.90356,0.53333 1.01747,-0.0692 1.98834,-0.37708 2.91265,-0.9224 0.92445,-0.56112 1.73377,-1.37974 2.42797,-2.45526 z"
           style="font-weight:bold;font-size:48px;-inkscape-font-specification:'sans-serif, Bold';fill:#cccccc"
           id="path466-4" />
        <path
           d="m 342.51349,323.04325 c -0.0137,1.60173 -0.26792,3.1814 -0.76257,4.74095 -0.49445,1.54606 -1.19314,2.86382 -2.09604,3.95379 -1.23603,1.48154 -2.61346,2.62952 -4.13233,3.4423 -1.50503,0.81578 -3.37835,1.29036 -5.62001,1.42093 l -4.93028,0.28718 -0.092,12.00515 -7.91791,0.62165 0.27155,-37.34903 13.04949,-0.21344 c 1.95467,-0.032 3.59797,0.14437 4.92988,0.52762 1.34577,0.36498 2.53152,0.93302 3.55725,1.70337 1.23076,0.92392 2.16328,2.11584 2.79758,3.57631 0.64798,1.45677 0.96309,3.217 0.94539,5.28322 z m -8.19546,0.51394 c 0.008,-1.02344 -0.21846,-1.89293 -0.68039,-2.60935 -0.46181,-0.73388 -1.00117,-1.23864 -1.61807,-1.51384 -0.82256,-0.36791 -1.62593,-0.55759 -2.41009,-0.56829 -0.78403,-0.0272 -1.82973,-0.0225 -3.1371,0.014 l -1.36241,0.0381 -0.0846,11.0398 2.26975,-0.10568 c 1.3481,-0.0628 2.45625,-0.21254 3.32444,-0.4489 0.88196,-0.23641 1.62107,-0.6613 2.21732,-1.27421 0.51322,-0.5431 0.88279,-1.17674 1.10872,-1.90122 0.23983,-0.74073 0.36397,-1.63072 0.37243,-2.67039 z"
           style="font-weight:bold;font-size:48px;-inkscape-font-specification:'sans-serif, Bold';fill:#cccccc"
           id="path468-3" />
        <path
           d="m 370.11956,345.34173 -22.20725,1.74353 0.31414,-35.42601 22.23782,-0.36373 -0.0667,6.58516 -14.3465,0.40694 -0.0561,6.03002 13.31122,-0.52029 -0.0664,6.59756 -13.30768,0.68012 -0.0803,8.63443 14.33441,-0.9529 z"
           style="font-weight:bold;font-size:48px;-inkscape-font-specification:'sans-serif, Bold';fill:#cccccc"
           id="path470-9" />
        <path
           d="m 394.23832,320.87733 c 0.009,-0.81646 -0.14067,-1.51115 -0.45041,-2.08459 -0.30975,-0.57414 -0.84801,-1.01813 -1.61479,-1.33218 -0.53402,-0.21902 -1.15859,-0.34067 -1.8737,-0.36468 -0.71495,-0.0388 -1.54721,-0.0451 -2.49677,-0.0187 l -2.86934,0.0797 -0.0982,8.92604 2.43494,-0.10839 c 1.26562,-0.0563 2.32563,-0.16967 3.18005,-0.33968 0.85443,-0.16958 1.57323,-0.5011 2.1564,-0.99409 0.55551,-0.47622 0.96022,-0.98911 1.21411,-1.53903 0.26782,-0.56451 0.40707,-1.30583 0.41771,-2.22435 z m 12.08918,21.62164 -9.67056,0.75926 -8.23598,-11.41323 -3.6515,0.20339 -0.13373,12.15364 -7.87666,0.61842 0.35384,-33.63368 13.29727,-0.21749 c 1.81702,-0.0297 3.37812,0.0542 4.68327,0.25091 1.30513,0.19563 2.52465,0.6452 3.65854,1.34715 1.14757,0.69847 2.05162,1.61514 2.71214,2.75016 0.6744,1.11729 1.00113,2.53592 0.98024,4.25817 -0.0287,2.36809 -0.5818,4.32055 -1.65914,5.86198 -1.06344,1.54689 -2.57766,2.86955 -4.54263,3.96906 z"
           style="font-weight:bold;font-size:48px;-inkscape-font-specification:'sans-serif, Bold';fill:#cccccc"
           id="path472-0" />
        <path
           d="m 431.53951,308.93536 -16.8876,39.70815 -6.3283,0.58258 16.81465,-40.20391 z"
           style="font-weight:bold;font-size:48px;-inkscape-font-specification:'sans-serif, Bold';fill:#cccccc"
           id="path474-5" />
        <path
           d="m 158.10649,419.59806 c -0.005,4.39703 -0.66105,8.4475 -1.96816,12.16039 -1.30682,3.70365 -2.95549,6.67224 -4.94604,8.90416 -1.49619,1.68096 -3.13591,2.96561 -4.91921,3.85177 -1.78324,0.88874 -3.89537,1.56083 -6.33644,2.01431 l -10.79965,2.00631 0.0131,-49.01778 11.12353,-1.37181 c 2.49936,-0.30823 4.65516,-0.24076 6.46735,0.20006 1.81214,0.41628 3.3356,1.14369 4.57037,2.1816 2.11266,1.72829 3.77127,4.20638 4.97584,7.4345 1.21809,3.19422 1.82448,7.07035 1.81935,11.63649 z m -8.17213,1.16722 c 0.003,-3.14099 -0.3655,-5.76816 -1.10481,-7.88474 -0.72567,-2.14423 -1.88425,-3.73963 -3.47578,-4.78695 -0.80954,-0.51299 -1.63984,-0.81987 -2.4909,-0.92 -0.83732,-0.12405 -2.10719,-0.0714 -3.80962,0.1584 l -1.9976,0.26962 -0.015,30.37346 1.99588,-0.34741 c 1.87928,-0.32711 3.25796,-0.69654 4.13605,-1.10787 0.87812,-0.43228 1.73583,-1.07542 2.57315,-1.92877 1.44143,-1.53382 2.49917,-3.42647 3.17323,-5.67875 0.67415,-2.26992 1.01263,-4.98463 1.0154,-8.14699 z"
           style="font-weight:bold;font-size:48px;-inkscape-font-specification:'sans-serif, Bold';fill:#cccccc"
           id="path476-6" />
        <path
           d="m 186.262,437.92259 -22.15471,4.1158 0.0613,-46.83982 22.18528,-2.73599 -0.0178,8.7928 -14.3126,1.93779 -0.0125,8.00003 13.27975,-1.941 -0.0175,8.80519 -13.27621,2.10084 -0.0178,11.45531 14.3005,-2.48375 z"
           style="font-weight:bold;font-size:48px;-inkscape-font-specification:'sans-serif, Bold';fill:#cccccc"
           id="path478-3" />
        <path
           d="m 217.44851,418.45812 c -0.0133,4.28676 -1.30657,8.00201 -3.87954,11.16053 -2.55877,3.15606 -6.03215,5.15151 -10.42047,5.97172 -2.53699,0.47419 -4.75094,0.5679 -6.64191,0.2786 -1.87728,-0.31534 -3.63767,-0.82699 -5.28121,-1.53581 l 0.0237,-10.82538 0.86433,-0.14442 c 1.62827,1.64105 3.44944,2.79826 5.46354,3.47381 2.02769,0.66741 3.97425,0.83539 5.83976,0.50825 0.4801,-0.0842 1.11124,-0.25438 1.89342,-0.51035 0.78219,-0.25573 1.42058,-0.56515 1.91515,-0.92818 0.60455,-0.46074 1.09961,-0.99068 1.48519,-1.58985 0.39931,-0.60094 0.60044,-1.42355 0.60337,-2.46828 0.003,-0.96589 -0.28308,-1.74582 -0.85739,-2.34065 -0.56055,-0.61796 -1.38914,-1.02522 -2.48577,-1.22181 -1.15149,-0.20867 -2.37169,-0.3777 -3.6606,-0.50703 -1.27516,-0.15271 -2.47466,-0.40872 -3.5985,-0.76835 -2.57681,-0.81275 -4.43237,-2.17973 -5.56666,-4.09933 -1.12066,-1.94845 -1.67762,-4.49144 -1.67075,-7.62404 0.009,-4.20374 1.29365,-7.79716 3.8536,-10.76627 2.57415,-2.9722 5.87328,-4.69706 9.89708,-5.18875 2.01877,-0.24668 4.00926,-0.20411 5.97144,0.12533 1.9759,0.30495 3.68351,0.78697 5.12283,1.4458 l -0.0307,10.04259 -0.84425,0.11883 c -1.23127,-1.23565 -2.74478,-2.20234 -4.54052,-2.89996 -1.78207,-0.724 -3.60675,-0.96303 -5.47398,-0.71344 -0.65902,0.0881 -1.31823,0.2457 -1.97761,0.47299 -0.64559,0.20582 -1.2709,0.52856 -1.8759,0.96851 -0.5362,0.37143 -0.99727,0.89272 -1.38322,1.56401 -0.38589,0.65197 -0.57979,1.36788 -0.58171,2.14725 -0.003,1.17904 0.3037,2.04423 0.91982,2.59473 0.61614,0.52945 1.78142,0.92827 3.49584,1.19539 1.12462,0.17278 2.20121,0.34165 3.22976,0.50672 1.04226,0.16213 2.15966,0.43039 3.35218,0.80409 2.34373,0.74802 4.06853,1.98385 5.1744,3.70849 1.11952,1.69695 1.67458,4.04354 1.66528,7.04426 z"
           style="font-weight:bold;font-size:48px;-inkscape-font-specification:'sans-serif, Bold';fill:#cccccc"
           id="path480-6" />
        <path
           d="m 239.37571,428.05538 -17.93771,3.33238 0.0249,-7.67164 5.0205,-0.87703 0.0951,-27.7242 -5.02496,0.67528 0.0249,-7.67164 17.96245,-2.21522 -0.0293,7.47357 -5.02496,0.67528 -0.10212,27.40668 5.0205,-0.87703 z"
           style="font-weight:bold;font-size:48px;-inkscape-font-specification:'sans-serif, Bold';fill:#cccccc"
           id="path482-3" />
        <path
           d="m 272.91812,419.53923 c -1.37515,0.95095 -3.19595,1.98707 -5.46236,3.10982 -2.26622,1.10951 -4.52379,1.87644 -6.7728,2.29718 -5.21111,0.97488 -9.28247,-0.17126 -12.21467,-3.46381 -2.93286,-3.34512 -4.38559,-8.44168 -4.35764,-15.26414 0.0267,-6.50383 1.53768,-11.9465 4.53366,-16.30164 2.99684,-4.33849 7.15978,-6.8198 12.48824,-7.47046 2.01877,-0.24651 3.94019,-0.23611 5.76423,0.0292 1.82408,0.24447 3.8516,0.93769 6.08247,2.07428 l -0.0495,9.39218 -0.88539,0.12596 c -0.38239,-0.32283 -0.94245,-0.77386 -1.6802,-1.35394 -0.73769,-0.59968 -1.44851,-1.09643 -2.13246,-1.48981 -0.79334,-0.46992 -1.72441,-0.84115 -2.79322,-1.11365 -1.05509,-0.27573 -2.17989,-0.33421 -3.37437,-0.17444 -1.40042,0.18731 -2.6717,0.63196 -3.81381,1.33539 -1.14207,0.70532 -2.16875,1.69117 -3.08002,2.95847 -0.86985,1.22772 -1.56255,2.73786 -2.0781,4.53022 -0.50169,1.77446 -0.75747,3.78274 -0.76737,6.02295 -0.0202,4.573 0.86294,7.92264 2.64927,10.03906 1.78605,2.10331 4.43473,2.84177 7.94626,2.22525 0.30178,-0.053 0.63103,-0.11987 0.98775,-0.20064 0.37045,-0.0832 0.70665,-0.16939 1.0086,-0.25868 l 0.0393,-7.95469 -6.11257,0.99726 0.0362,-7.72683 14.14285,-2.1407 z"
           style="font-weight:bold;font-size:48px;-inkscape-font-specification:'sans-serif, Bold';fill:#cccccc"
           id="path484-0" />
        <path
           d="m 307.8352,415.33731 -7.61118,1.41397 -12.84206,-24.47122 -0.15866,26.88643 -7.24091,1.34518 0.22117,-39.62307 9.45501,-1.16604 11.04234,20.58395 0.14299,-21.96338 7.2509,-0.89421 z"
           style="font-weight:bold;font-size:48px;-inkscape-font-specification:'sans-serif, Bold';fill:#cccccc"
           id="path486-8" />
        <path
           d="m 337.80681,409.76933 -22.15472,4.11579 0.27038,-37.40155 22.18528,-2.73599 -0.0582,6.96727 -14.31258,1.93779 -0.0485,6.37099 13.27974,-1.941 -0.0579,6.97966 -13.2762,2.10083 -0.0695,9.12269 14.30049,-2.48375 z"
           style="font-weight:bold;font-size:48px;-inkscape-font-specification:'sans-serif, Bold';fill:#cccccc"
           id="path488-4" />
        <path
           d="m 361.83874,381.38592 c 0.008,-0.866 -0.14233,-1.58625 -0.45211,-2.1613 -0.30979,-0.57575 -0.84738,-0.98959 -1.61279,-1.24175 -0.53306,-0.17591 -1.15633,-0.23915 -1.86981,-0.18946 -0.71333,0.034 -1.54366,0.11482 -2.49099,0.24252 l -2.86255,0.38588 -0.0864,9.45806 2.42918,-0.3683 c 1.26263,-0.19143 2.32005,-0.42181 3.17228,-0.69083 0.85223,-0.26859 1.56893,-0.69459 2.15012,-1.27756 0.5536,-0.56237 0.9567,-1.14793 1.20927,-1.757 0.26647,-0.62603 0.40442,-1.42596 0.41383,-2.40021 z m 12.09032,21.67279 -9.64769,1.7923 -8.2322,-11.24335 -3.64287,0.59326 -0.11768,12.87805 -7.85803,1.45982 0.31008,-35.60921 13.26585,-1.63601 c 1.81272,-0.22355 3.37028,-0.29968 4.67264,-0.22919 1.30233,0.0694 2.51959,0.41703 3.65175,1.04132 1.14583,0.61935 2.04899,1.49586 2.70949,2.62969 0.67431,1.11374 1.00217,2.58367 0.98364,4.41206 -0.0255,2.51403 -0.57468,4.64199 -1.64747,6.38847 -1.05894,1.75049 -2.56792,3.30972 -4.52692,4.67878 z"
           style="font-weight:bold;font-size:48px;-inkscape-font-specification:'sans-serif, Bold';fill:#cccccc"
           id="path490-0" />
      </g>
    </g>
  </g>
</svg>
